<?xml version="1.0" encoding="UTF-8"?>
<svg xmlns="http://www.w3.org/2000/svg" viewBox="0 0 57 57">
  <defs>
    <style>
      .cls-1 {
        fill: #f2f5d1;
      }

      .cls-2 {
        fill: #d0db4e;
      }

      .cls-3 {
        fill: #4e8f41;
      }
    </style>
  </defs>
  <g id="Layer_4" data-name="Layer 4">
    <rect class="cls-1" y=".92" width="57" height="57" rx="10" ry="10"/>
  </g>
  <g id="Layer_3" data-name="Layer 3">
    <path class="cls-2" d="m43.45,46.71l-2.65-7.2h-10.15l-2.65,7.2-9.61,6.45,14.86-38.6h5.35l12.55,32.15h-7.7Zm-6.75-19.15c-.3-.85-.7-1.9-.95-2.95h-.1c-.25,1.05-.6,2.15-.9,2.95l-2.15,5.9h6.25l-2.15-5.9Z"/>
    <path class="cls-3" d="m23.04,41.91h-6.35L5.04,9.8h7.95l5,14.05c.75,2.1,1.5,4.7,2.1,7.1h.1c.6-2.35,1.35-4.95,2.1-7.1l5-14.05,9.45-5.96-13.7,38.07Z"/>
  </g>
</svg>